<svg width="64" height="64" viewBox="0 0 64 64" fill="none" xmlns="http://www.w3.org/2000/svg">
    <!-- Background circle without gradient -->
    <rect width="64" height="64" rx="14" fill="#0286de" />
    <defs>
        <linearGradient id="starGlow" x1="0%" y1="0%" x2="100%" y2="100%">
            <stop offset="0%" style="stop-color:#ffffff;stop-opacity:1" />
            <stop offset="100%" style="stop-color:#e0f2fe;stop-opacity:0.8" />
        </linearGradient>
    </defs>

    <!-- Constellation lines connecting stars -->
    <path d="M20 18 L32 28 L44 16" stroke="white" stroke-width="1.5" stroke-opacity="0.4"
        stroke-linecap="round" />
    <path d="M32 28 L24 42" stroke="white" stroke-width="1.5" stroke-opacity="0.4"
        stroke-linecap="round" />
    <path d="M32 28 L40 42" stroke="white" stroke-width="1.5" stroke-opacity="0.4"
        stroke-linecap="round" />
    <path d="M24 42 L40 42" stroke="white" stroke-width="1.5" stroke-opacity="0.4"
        stroke-linecap="round" />
    <path d="M16 32 L24 42" stroke="white" stroke-width="1.5" stroke-opacity="0.4"
        stroke-linecap="round" />
    <path d="M48 32 L40 42" stroke="white" stroke-width="1.5" stroke-opacity="0.4"
        stroke-linecap="round" />

    <!-- Main central star (nurse agent) -->
    <circle cx="32" cy="28" r="5" fill="white" />
    <circle cx="32" cy="28" r="3" fill="url(#bgGradient)" />

    <!-- Top left star -->
    <circle cx="20" cy="18" r="3" fill="white" fill-opacity="0.9" />

    <!-- Top right star -->
    <circle cx="44" cy="16" r="2.5" fill="white" fill-opacity="0.9" />

    <!-- Bottom left star (medical auditor) -->
    <circle cx="24" cy="42" r="4" fill="white" />
    <circle cx="24" cy="42" r="2" fill="#f43f5e" fill-opacity="0.8" />

    <!-- Bottom right star (legal auditor) -->
    <circle cx="40" cy="42" r="4" fill="white" />
    <circle cx="40" cy="42" r="2" fill="#a855f7" fill-opacity="0.8" />

    <!-- Side stars -->
    <circle cx="16" cy="32" r="2" fill="white" fill-opacity="0.7" />
    <circle cx="48" cy="32" r="2" fill="white" fill-opacity="0.7" />

    <!-- Small accent stars -->
    <circle cx="12" cy="20" r="1" fill="white" fill-opacity="0.5" />
    <circle cx="52" cy="24" r="1" fill="white" fill-opacity="0.5" />
    <circle cx="14" cy="48" r="1" fill="white" fill-opacity="0.4" />
    <circle cx="50" cy="48" r="1" fill="white" fill-opacity="0.4" />

    <!-- Shield/safety overlay on center star -->
    <path d="M32 23 L36 25 L36 30 C36 32 34 34 32 35 C30 34 28 32 28 30 L28 25 Z" fill="white"
        fill-opacity="0.3" />
</svg>